#!OML:ASF F:\VICON\USERDATA\INSTALL\rory3\rory3.ASF
:FULLY-SPECIFIED
:DEGREES
1
root 2.324 15.7842 -30.1611 18.0581 -1.4672 0.166615
lowerback -0.00984414 0.137154 -0.59277
upperback -5.96014 0.173606 0.212008
thorax -6.17341 0.123214 0.542734
lowerneck -15.8832 -3.86537 -6.27947
upperneck 13.6558 -4.7206 5.41881
head 7.06849 -2.11698 2.27756
rclavicle -1.42876e-016 -2.98177e-016
rhumerus -45.1034 12.0993 -91.8169
rradius 66.3184
rwrist 14.7333
rhand -28.9224 -54.1693
rfingers 7.12502
rthumb -2.27677 -84.1369
lclavicle -1.42876e-016 -2.98177e-016
lhumerus -56.2787 -23.1092 91.734
lradius 71.7632
lwrist 6.1372
lhand -34.6653 -41.1006
lfingers 7.12502
lthumb -7.82171 -11.2653
rfemur -61.4938 -0.147012 17.5031
rtibia 104.115
rfoot -11.9199 -20.1793
rtoes 8.1245
lfemur -38.154 0.509573 -32.4482
ltibia 60.6093
lfoot -32.745 7.8067
ltoes 0.538532
2
root 2.26522 15.6483 -29.7768 17.871 -1.43357 1.32976
lowerback 0.932777 -0.126525 -2.04025
upperback -5.41791 -0.26416 -0.128561
thorax -6.13335 -0.0329137 1.0252
lowerneck -18.3344 -3.87441 -6.08213
upperneck 13.8077 -4.67931 5.62211
head 7.5341 -2.02652 2.29035
rclavicle 2.43822e-015 4.17448e-015
rhumerus -45.099 10.7811 -91.1521
rradius 67.5403
rwrist 13.7303
rhand -28.2495 -56.1341
rfingers 7.12502
rthumb -1.62692 -86.1077
lclavicle 2.43822e-015 4.17448e-015
lhumerus -52.4843 -24.5891 91.1405
lradius 71.9463
lwrist 6.73775
lhand -34.3099 -41.0012
lfingers 7.12502
lthumb -7.47866 -11.1534
rfemur -65.0301 0.189671 15.9255
rtibia 103.674
rfoot -11.7627 -19.0799
rtoes 3.45325
lfemur -36.2062 0.585968 -33.4243
ltibia 60.446
lfoot -34.4122 7.96736
ltoes -0.819721
3
root 2.21161 15.5423 -29.375 17.8509 -1.49804 2.10225
lowerback 0.449789 -0.442822 -3.28898
upperback -5.09333 -0.717376 -0.16391
thorax -5.48995 -0.211124 1.7087
lowerneck -16.9997 -3.57209 -6.33722
upperneck 12.3547 -4.27383 5.93617
head 6.82216 -1.84412 2.49261
rclavicle 2.27981e-015 5.35476e-015
rhumerus -46.0373 10.0849 -90.5728
rradius 68.6004
rwrist 13.2441
rhand -28.2538 -55.8224
rfingers 7.12502
rthumb -1.63105 -85.7959
lclavicle 2.27981e-015 5.35476e-015
lhumerus -49.5869 -25.5807 91.0647
lradius 72.0841
lwrist 6.76992
lhand -34.3405 -41.6261
lfingers 7.12502
lthumb -7.5082 -11.7793
rfemur -68.6359 0.772875 14.7862
rtibia 102.248
rfoot -11.5265 -17.9021
rtoes 1.87099
lfemur -34.2082 0.951518 -34.0183
ltibia 59.9864
lfoot -36.0531 8.03094
ltoes -2.0983
4
root 2.16207 15.4385 -28.9647 18.0184 -1.47356 2.33686
lowerback 1.20844 -0.79414 -3.80634
upperback -5.64659 -1.25665 -0.154574
thorax -6.47788 -0.428379 2.05457
lowerneck -16.1079 -3.18721 -6.13895
upperneck 12.1248 -3.82925 5.86564
head 6.56395 -1.6425 2.4934
rclavicle -1.44678e-014 3.05631e-015
rhumerus -48.2712 9.52871 -90.4337
rradius 69.6212
rwrist 13.1216
rhand -29.7572 -52.7865
rfingers 7.12502
rthumb -3.08297 -82.7439
lclavicle -1.44678e-014 3.05631e-015
lhumerus -48.289 -26.4176 91.2684
lradius 72.7722
lwrist 6.20424
lhand -34.042 -42.621
lfingers 7.12502
lthumb -7.22007 -12.7642
rfemur -71.5717 1.49351 14.1892
rtibia 100.343
rfoot -11.7959 -16.6461
rtoes 4.51463
lfemur -32.3592 1.35229 -34.0225
ltibia 59.5241
lfoot -37.6158 7.98809
ltoes -2.67915
5
root 2.11768 15.3585 -28.5388 18.3718 -1.38483 2.34115
lowerback -0.271213 -1.02267 -4.17384
upperback -4.73801 -1.48063 -0.187345
thorax -4.64798 -0.575215 2.19734
lowerneck -16.5826 -3.04537 -5.52233
upperneck 10.9422 -3.68784 5.7573
head 6.24219 -1.55144 2.3662
rclavicle -2.2239e-015 2.38542e-015
rhumerus -48.1038 8.63324 -89.8711
rradius 70.6486
rwrist 12.9217
rhand -30.8077 -50.7552
rfingers 7.12502
rthumb -4.0974 -80.6956
lclavicle -2.2239e-015 2.38542e-015
lhumerus -44.157 -28.0254 90.2448
lradius 73.5535
lwrist 5.53966
lhand -33.7773 -42.5157
lfingers 7.12502
lthumb -6.96459 -12.6503
rfemur -74.4868 2.24369 13.8724
rtibia 97.5932
rfoot -11.7167 -16.013
rtoes 0.869938
lfemur -30.4696 1.65228 -33.7796
ltibia 58.7555
lfoot -38.8937 8.01723
ltoes -3.19573
6
root 2.08058 15.2581 -28.1008 18.487 -1.4967 2.51893
lowerback -0.33898 -1.23828 -4.4279
upperback -4.47693 -1.77114 -0.375879
thorax -4.31583 -0.725612 2.1485
lowerneck -17.5975 -2.85904 -4.98103
upperneck 10.9472 -3.50826 5.69814
head 6.39083 -1.42969 2.27186
rclavicle -2.73329e-015 -2.34566e-014
rhumerus -48.9363 8.08868 -89.7088
rradius 71.9497
rwrist 12.8976
rhand -30.9883 -50.3282
rfingers 7.12502
rthumb -4.27184 -80.2651
lclavicle -2.73329e-015 -2.34566e-014
lhumerus -41.0116 -29.3607 89.3734
lradius 74.5434
lwrist 5.05282
lhand -34.3701 -41.7388
lfingers 7.12502
lthumb -7.53683 -11.893
rfemur -76.4877 2.84185 13.3794
rtibia 94.4706
rfoot -12.0022 -14.6859
rtoes -1.38033
lfemur -28.1331 1.99988 -33.7969
ltibia 57.7397
lfoot -40.0441 8.17073
ltoes -4.22948
